<svg width="20" height="20" viewBox="0 0 25 25" fill="none" xmlns="http://www.w3.org/2000/svg">
<path d="M24.5 12.488C24.5 5.87 19.124 0.5 12.5 0.5C5.876 0.5 0.5 5.87 0.5 12.488C0.5 16.133 2.156 19.418 4.748 21.623C4.772 21.647 4.796 21.647 4.796 21.671C5.012 21.839 5.228 22.007 5.468 22.175C5.588 22.247 5.684 22.3415 5.804 22.4375C7.7871 23.782 10.1281 24.5005 12.524 24.5C14.9199 24.5005 17.2609 23.782 19.244 22.4375C19.364 22.3655 19.46 22.271 19.58 22.1975C19.796 22.031 20.036 21.863 20.252 21.695C20.276 21.671 20.3 21.671 20.3 21.647C22.844 19.4165 24.5 16.133 24.5 12.488ZM12.5 22.9895C10.244 22.9895 8.18 22.2695 6.476 21.071C6.5 20.879 6.548 20.6885 6.596 20.4965C6.73901 19.9762 6.94875 19.4765 7.22 19.01C7.484 18.554 7.796 18.146 8.18 17.786C8.54 17.426 8.972 17.0915 9.404 16.8275C9.86 16.5635 10.34 16.3715 10.868 16.2275C11.4001 16.0841 11.9489 16.0119 12.5 16.013C14.136 16.0014 15.7118 16.629 16.892 17.762C17.444 18.314 17.876 18.962 18.188 19.7045C18.356 20.1365 18.476 20.5925 18.548 21.071C16.7768 22.3162 14.6652 22.9861 12.5 22.9895ZM8.828 11.8895C8.61653 11.4053 8.51019 10.8818 8.516 10.3535C8.516 9.827 8.612 9.299 8.828 8.819C9.044 8.339 9.332 7.9085 9.692 7.5485C10.052 7.1885 10.484 6.902 10.964 6.686C11.444 6.47 11.972 6.374 12.5 6.374C13.052 6.374 13.556 6.47 14.036 6.686C14.516 6.902 14.948 7.19 15.308 7.5485C15.668 7.9085 15.956 8.3405 16.172 8.819C16.388 9.299 16.484 9.827 16.484 10.3535C16.484 10.9055 16.388 11.4095 16.172 11.888C15.9635 12.3609 15.6708 12.7919 15.308 13.16C14.9398 13.5222 14.5088 13.8145 14.036 14.0225C13.0442 14.4301 11.9318 14.4301 10.94 14.0225C10.4672 13.8145 10.0362 13.5222 9.668 13.16C9.30472 12.7973 9.01894 12.3645 8.828 11.888V11.8895ZM19.964 19.8485C19.964 19.8005 19.94 19.7765 19.94 19.7285C19.704 18.9776 19.356 18.2666 18.908 17.6195C18.4595 16.9676 17.9084 16.3926 17.276 15.917C16.793 15.5537 16.2695 15.2476 15.716 15.005C15.9678 14.8389 16.2011 14.6463 16.412 14.4305C16.7698 14.0773 17.084 13.6824 17.348 13.2545C17.8795 12.3812 18.154 11.3757 18.14 10.3535C18.1474 9.59677 18.0004 8.84648 17.708 8.1485C17.4193 7.47596 17.0037 6.86533 16.484 6.35C15.9651 5.84005 15.3543 5.43289 14.684 5.15C13.9849 4.85809 13.2336 4.71161 12.476 4.7195C11.7183 4.71209 10.967 4.85908 10.268 5.1515C9.59188 5.43378 8.97966 5.84958 8.468 6.374C7.95806 6.89238 7.55089 7.50263 7.268 8.1725C6.97557 8.87048 6.82858 9.62077 6.836 10.3775C6.836 10.9055 6.908 11.4095 7.052 11.888C7.196 12.392 7.388 12.848 7.652 13.2785C7.892 13.7105 8.228 14.0945 8.588 14.4545C8.804 14.6705 9.044 14.861 9.308 15.029C8.75275 15.2781 8.22908 15.5923 7.748 15.965C7.124 16.445 6.572 17.0195 6.116 17.6435C5.66339 18.2879 5.31512 18.9997 5.084 19.7525C5.06 19.8005 5.06 19.8485 5.06 19.8725C3.164 17.954 1.988 15.365 1.988 12.488C1.988 6.71 6.716 1.9865 12.5 1.9865C18.284 1.9865 23.012 6.71 23.012 12.488C23.0089 15.2479 21.913 17.8943 19.964 19.8485Z" fill="#3B3B3B"/>
</svg>
