<svg width="20" height="20" viewBox="0 0 25 25" fill="none" xmlns="http://www.w3.org/2000/svg">
<path d="M21.58 7.50001C21.4072 7.20063 21.1598 6.95114 20.8618 6.77588C20.5639 6.60062 20.2256 6.50557 19.88 6.50001H7.08L6.5 4.24001C6.4414 4.02184 6.31066 3.82995 6.12908 3.69558C5.94749 3.56121 5.72576 3.49227 5.5 3.50001H3.5C3.23478 3.50001 2.98043 3.60536 2.79289 3.7929C2.60536 3.98044 2.5 4.23479 2.5 4.50001C2.5 4.76522 2.60536 5.01958 2.79289 5.20711C2.98043 5.39465 3.23478 5.50001 3.5 5.50001H4.74L7.5 15.76C7.5586 15.9782 7.68934 16.1701 7.87092 16.3044C8.05251 16.4388 8.27424 16.5077 8.5 16.5H17.5C17.6847 16.4994 17.8656 16.4478 18.0227 16.3507C18.1798 16.2536 18.3069 16.1149 18.39 15.95L21.67 9.39001C21.8122 9.09202 21.8783 8.76348 21.8626 8.43369C21.8469 8.1039 21.7498 7.78313 21.58 7.50001ZM16.88 14.5H9.26L7.63 8.50001H19.88L16.88 14.5Z" fill="#3B3B3B"/>
<path d="M8 21.5C8.82843 21.5 9.5 20.8284 9.5 20C9.5 19.1716 8.82843 18.5 8 18.5C7.17157 18.5 6.5 19.1716 6.5 20C6.5 20.8284 7.17157 21.5 8 21.5Z" fill="#222222"/>
<path d="M18 21.5C18.8284 21.5 19.5 20.8284 19.5 20C19.5 19.1716 18.8284 18.5 18 18.5C17.1716 18.5 16.5 19.1716 16.5 20C16.5 20.8284 17.1716 21.5 18 21.5Z" fill="#222222"/>
</svg>
