<svg width="42" height="42" viewBox="0 0 42 42" fill="none" xmlns="http://www.w3.org/2000/svg">
<path d="M21 3.5C17.5388 3.5 14.1554 4.52636 11.2775 6.44928C8.39967 8.37221 6.15665 11.1053 4.83212 14.303C3.50758 17.5007 3.16102 21.0194 3.83627 24.4141C4.51151 27.8087 6.17822 30.927 8.62564 33.3744C11.0731 35.8218 14.1913 37.4885 17.5859 38.1637C20.9806 38.839 24.4993 38.4924 27.697 37.1679C30.8947 35.8434 33.6278 33.6003 35.5507 30.7225C37.4736 27.8446 38.5 24.4612 38.5 21C38.5 18.7019 38.0474 16.4262 37.1679 14.303C36.2884 12.1798 34.9994 10.2507 33.3744 8.62563C31.7494 7.00061 29.8202 5.71157 27.697 4.83211C25.5738 3.95265 23.2981 3.5 21 3.5V3.5ZM21 35C18.2311 35 15.5243 34.1789 13.222 32.6406C10.9197 31.1022 9.12532 28.9157 8.06569 26.3576C7.00607 23.7994 6.72882 20.9845 7.26901 18.2687C7.80921 15.553 9.14258 13.0584 11.1005 11.1005C13.0584 9.14257 15.553 7.8092 18.2687 7.26901C20.9845 6.72881 23.7994 7.00606 26.3576 8.06569C28.9157 9.12531 31.1022 10.9197 32.6406 13.222C34.1789 15.5243 35 18.2311 35 21C35 24.713 33.525 28.274 30.8995 30.8995C28.274 33.525 24.713 35 21 35V35Z" fill="#62FF67"/>
<path d="M25.7251 14.6825L19.1101 23.4325L16.2576 19.74C15.9721 19.3733 15.5527 19.1351 15.0916 19.0777C14.6305 19.0202 14.1655 19.1483 13.7988 19.4338C13.4322 19.7192 13.1939 20.1386 13.1365 20.5997C13.0791 21.0608 13.2071 21.5258 13.4926 21.8925L17.7451 27.335C17.9099 27.5436 18.12 27.7118 18.3596 27.8271C18.5991 27.9423 18.8618 28.0014 19.1276 28C19.3948 27.9994 19.6584 27.9375 19.898 27.8192C20.1377 27.7009 20.3471 27.5293 20.5101 27.3175L28.5076 16.8175C28.7907 16.4462 28.9147 15.9776 28.8524 15.5149C28.79 15.0521 28.5464 14.6331 28.1751 14.35C27.8038 14.0669 27.3352 13.9429 26.8725 14.0052C26.4097 14.0676 25.9907 14.3112 25.7076 14.6825H25.7251Z" fill="#62FF67"/>
</svg>
