<svg width="100" height="100" viewBox="0 0 100 100" fill="#837469" xmlns="http://www.w3.org/2000/svg">
<path d="M90.1269 68.5449H31.9727L34.8926 62.5977L83.4082 62.5098C85.0488 62.5098 86.4551 61.3379 86.748 59.7168L93.4668 22.1094C93.6426 21.123 93.3789 20.1074 92.7344 19.3359C92.4158 18.9563 92.0185 18.6504 91.5699 18.4396C91.1214 18.2288 90.6323 18.1181 90.1367 18.1152L28.418 17.9102L27.8906 15.4297C27.5586 13.8477 26.1328 12.6953 24.5117 12.6953H9.42383C8.50956 12.6953 7.63273 13.0585 6.98624 13.705C6.33976 14.3515 5.97656 15.2283 5.97656 16.1426C5.97656 17.0569 6.33976 17.9337 6.98624 18.5802C7.63273 19.2267 8.50956 19.5898 9.42383 19.5898H21.7187L24.0234 30.5469L29.6973 58.0176L22.3926 69.9414C22.0132 70.4534 21.7847 71.0613 21.733 71.6964C21.6812 72.3316 21.8082 72.9685 22.0996 73.5352C22.6855 74.6973 23.8672 75.4297 25.1758 75.4297H31.3086C30.0012 77.1662 29.295 79.2814 29.2969 81.4551C29.2969 86.9824 33.7891 91.4746 39.3164 91.4746C44.8437 91.4746 49.3359 86.9824 49.3359 81.4551C49.3359 79.2773 48.6133 77.1582 47.3242 75.4297H63.0566C61.7492 77.1662 61.043 79.2814 61.0449 81.4551C61.0449 86.9824 65.5371 91.4746 71.0644 91.4746C76.5918 91.4746 81.084 86.9824 81.084 81.4551C81.084 79.2773 80.3613 77.1582 79.0723 75.4297H90.1367C92.0312 75.4297 93.584 73.8867 93.584 71.9824C93.5783 71.0691 93.2116 70.1951 92.564 69.5511C91.9163 68.9071 91.0403 68.5454 90.1269 68.5449V68.5449ZM29.8535 24.707L86.084 24.8926L80.5762 55.7324L36.4062 55.8105L29.8535 24.707ZM39.3164 84.541C37.6172 84.541 36.2305 83.1543 36.2305 81.4551C36.2305 79.7559 37.6172 78.3691 39.3164 78.3691C41.0156 78.3691 42.4023 79.7559 42.4023 81.4551C42.4023 82.2735 42.0772 83.0584 41.4985 83.6372C40.9198 84.2159 40.1348 84.541 39.3164 84.541V84.541ZM71.0644 84.541C69.3652 84.541 67.9785 83.1543 67.9785 81.4551C67.9785 79.7559 69.3652 78.3691 71.0644 78.3691C72.7637 78.3691 74.1504 79.7559 74.1504 81.4551C74.1504 82.2735 73.8253 83.0584 73.2465 83.6372C72.6678 84.2159 71.8829 84.541 71.0644 84.541V84.541Z" fill="black"/>
</svg>
