<svg width="176" height="179" viewBox="0 0 176 179" fill="none" xmlns="http://www.w3.org/2000/svg">
<path d="M75.625 81.1094C75.625 82.4923 75.2218 83.8442 74.4664 84.994C73.7109 86.1439 72.6372 87.0401 71.3809 87.5693C70.1247 88.0985 68.7424 88.237 67.4088 87.9672C66.0751 87.6974 64.8501 87.0315 63.8886 86.0536C62.9272 85.0757 62.2724 83.8298 62.0071 82.4735C61.7418 81.1171 61.878 79.7112 62.3983 78.4336C62.9187 77.1559 63.7999 76.0639 64.9305 75.2956C66.061 74.5273 67.3903 74.1172 68.75 74.1172C70.5734 74.1172 72.322 74.8539 73.6114 76.1652C74.9007 77.4764 75.625 79.2549 75.625 81.1094V81.1094ZM107.25 74.1172C105.89 74.1172 104.561 74.5273 103.43 75.2956C102.3 76.0639 101.419 77.1559 100.898 78.4336C100.378 79.7112 100.242 81.1171 100.507 82.4735C100.772 83.8298 101.427 85.0757 102.389 86.0536C103.35 87.0315 104.575 87.6974 105.909 87.9672C107.242 88.237 108.625 88.0985 109.881 87.5693C111.137 87.0401 112.211 86.1439 112.966 84.994C113.722 83.8442 114.125 82.4923 114.125 81.1094C114.125 79.2549 113.401 77.4764 112.111 76.1652C110.822 74.8539 109.073 74.1172 107.25 74.1172V74.1172ZM152.625 83.9062V151.031C152.624 151.821 152.404 152.593 151.991 153.261C151.577 153.929 150.987 154.465 150.288 154.807C149.732 155.086 149.12 155.23 148.5 155.227C147.543 155.224 146.618 154.877 145.887 154.248L128.356 139.704L110.756 154.248C110.031 154.887 109.104 155.239 108.144 155.239C107.184 155.239 106.256 154.887 105.531 154.248L88 139.704L70.4688 154.248C69.7436 154.887 68.816 155.239 67.8562 155.239C66.8964 155.239 65.9689 154.887 65.2438 154.248L47.6438 139.704L30.1125 154.248C29.5101 154.749 28.7806 155.067 28.0081 155.164C27.2356 155.262 26.4518 155.135 25.7472 154.799C25.0425 154.462 24.4458 153.93 24.0261 153.263C23.6063 152.597 23.3806 151.823 23.375 151.031V83.9062C23.375 66.4745 30.1837 49.7567 42.3032 37.4306C54.4228 25.1044 70.8604 18.1797 88 18.1797C105.14 18.1797 121.577 25.1044 133.697 37.4306C145.816 49.7567 152.625 66.4745 152.625 83.9062V83.9062ZM144.375 83.9062C144.375 68.6998 138.436 54.1162 127.863 43.3636C117.291 32.611 102.952 26.5703 88 26.5703C73.0484 26.5703 58.7092 32.611 48.1369 43.3636C37.5645 54.1162 31.625 68.6998 31.625 83.9062V142.151L45.0312 131.034C45.7564 130.394 46.684 130.042 47.6438 130.042C48.6036 130.042 49.5311 130.394 50.2562 131.034L67.8562 145.577L85.3875 131.034C86.1188 130.407 87.044 130.064 88 130.064C88.956 130.064 89.8812 130.407 90.6125 131.034L108.144 145.577L125.744 131.034C126.469 130.394 127.396 130.042 128.356 130.042C129.316 130.042 130.244 130.394 130.969 131.034L144.375 142.151V83.9062Z" fill="#9D8A7B"/>
</svg>
