<svg width="30" height="34" viewBox="0 0 30 34" fill="none" xmlns="http://www.w3.org/2000/svg">
<path fill-rule="evenodd" clip-rule="evenodd" d="M8.81591 0.0994018C10.4155 0.018073 10.9255 0 15 0C19.0745 0 19.5845 0.0195791 21.1827 0.0994018C22.7809 0.179224 23.8718 0.460863 24.8264 0.869013C25.8259 1.2862 26.7327 1.93834 27.4827 2.78174C28.2464 3.60859 28.8355 4.60863 29.2118 5.7141C29.5827 6.76836 29.8364 7.97323 29.91 9.73535C29.9836 11.505 30 12.0683 30 16.567C30 21.0672 29.9823 21.6304 29.91 23.3971C29.8377 25.1592 29.5827 26.3641 29.2118 27.4183C28.8354 28.5239 28.2454 29.5257 27.4827 30.3537C26.7327 31.1971 25.8259 31.8477 24.8264 32.2634C23.8718 32.6731 22.7809 32.9532 21.1855 33.0345C19.5845 33.1159 19.0745 33.1339 15 33.1339C10.9255 33.1339 10.4155 33.1144 8.81591 33.0345C7.22045 32.9547 6.12955 32.6731 5.175 32.2634C4.17398 31.8477 3.26703 31.196 2.51727 30.3537C1.75415 29.5264 1.16361 28.5251 0.786818 27.4198C0.417273 26.3656 0.163636 25.1607 0.09 23.3986C0.0163636 21.6289 0 21.0657 0 16.567C0 12.0668 0.0177273 11.5035 0.09 9.73837C0.162273 7.97323 0.417273 6.76836 0.786818 5.7141C1.16417 4.60875 1.75516 3.60755 2.51864 2.78024C3.26733 1.93758 4.17337 1.28536 5.17364 0.869013C6.12818 0.460863 7.22045 0.180731 8.81591 0.0994018ZM21.0614 3.08146C19.4795 3.00163 19.005 2.98507 15 2.98507C10.995 2.98507 10.5205 3.00163 8.93864 3.08146C7.47545 3.15525 6.68182 3.42484 6.15273 3.65226C5.45318 3.95348 4.95273 4.31042 4.42773 4.89027C3.93006 5.42501 3.54706 6.07598 3.30682 6.79547C3.10091 7.37983 2.85682 8.25638 2.79 9.87241C2.71773 11.6195 2.70273 12.1436 2.70273 16.567C2.70273 20.9904 2.71773 21.5145 2.79 23.2615C2.85682 24.8776 3.10091 25.7541 3.30682 26.3385C3.54682 27.0569 3.93 27.709 4.42773 28.2437C4.91182 28.7934 5.50227 29.2166 6.15273 29.4817C6.68182 29.7091 7.47545 29.9787 8.93864 30.0525C10.5205 30.1323 10.9936 30.1489 15 30.1489C19.0064 30.1489 19.4795 30.1323 21.0614 30.0525C22.5245 29.9787 23.3182 29.7091 23.8473 29.4817C24.5468 29.1805 25.0473 28.8235 25.5723 28.2437C26.07 27.709 26.4532 27.0569 26.6932 26.3385C26.8991 25.7541 27.1432 24.8776 27.21 23.2615C27.2823 21.5145 27.2973 20.9904 27.2973 16.567C27.2973 12.1436 27.2823 11.6195 27.21 9.87241C27.1432 8.25638 26.8991 7.37983 26.6932 6.79547C26.4205 6.02285 26.0973 5.47011 25.5723 4.89027C25.0881 4.34065 24.4987 3.91765 23.8473 3.65226C23.3182 3.42484 22.5245 3.15525 21.0614 3.08146ZM13.0841 21.6741C14.1541 22.166 15.3455 22.2324 16.4549 21.862C17.5643 21.4915 18.5228 20.7071 19.1667 19.6428C19.8107 18.5785 20.1001 17.3002 19.9855 16.0264C19.871 14.7526 19.3596 13.5623 18.5386 12.6587C18.0153 12.0811 17.3826 11.6388 16.6859 11.3637C15.9893 11.0885 15.246 10.9875 14.5098 11.0677C13.7735 11.1479 13.0625 11.4074 12.4279 11.8275C11.7933 12.2476 11.251 12.8179 10.84 13.4973C10.4289 14.1767 10.1593 14.9484 10.0507 15.7566C9.94206 16.5649 9.99702 17.3897 10.2116 18.1717C10.4263 18.9537 10.7952 19.6734 11.2919 20.2791C11.7886 20.8847 12.4007 21.3611 13.0841 21.6741ZM9.54818 10.5456C10.2641 9.7549 11.1141 9.12765 12.0495 8.69971C12.9849 8.27177 13.9875 8.05151 15 8.05151C16.0125 8.05151 17.0151 8.27177 17.9505 8.69971C18.8859 9.12765 19.7359 9.7549 20.4518 10.5456C21.1678 11.3364 21.7357 12.2751 22.1231 13.3082C22.5106 14.3414 22.71 15.4487 22.71 16.567C22.71 17.6852 22.5106 18.7926 22.1231 19.8257C21.7357 20.8588 21.1678 21.7976 20.4518 22.5883C19.0059 24.1853 17.0448 25.0824 15 25.0824C12.9552 25.0824 10.9941 24.1853 9.54818 22.5883C8.10227 20.9914 7.28997 18.8254 7.28997 16.567C7.28997 14.3085 8.10227 12.1426 9.54818 10.5456ZM24.42 9.31967C24.5974 9.13483 24.7394 8.91255 24.8377 8.66599C24.9359 8.41943 24.9884 8.15361 24.9919 7.88427C24.9955 7.61492 24.9501 7.34752 24.8584 7.09791C24.7667 6.84829 24.6306 6.62153 24.4581 6.43106C24.2857 6.24058 24.0804 6.09025 23.8544 5.98899C23.6283 5.88772 23.3862 5.83756 23.1424 5.84149C22.8985 5.84541 22.6578 5.90334 22.4346 6.01185C22.2113 6.12035 22.0101 6.27722 21.8427 6.47317C21.5172 6.85425 21.339 7.36044 21.346 7.88427C21.3529 8.4081 21.5444 8.90833 21.8798 9.27877C22.2152 9.64922 22.6681 9.8607 23.1424 9.86834C23.6167 9.87598 24.075 9.67916 24.42 9.31967Z" fill="white"/>
</svg>
