<svg width="20" height="20" viewBox="0 0 25 25" fill="none" xmlns="http://www.w3.org/2000/svg">
<path d="M21.8187 20.5273L15.732 14.4406C16.6766 13.2195 17.1875 11.7266 17.1875 10.1562C17.1875 8.27656 16.4539 6.51406 15.1273 5.18516C13.8008 3.85625 12.0336 3.125 10.1562 3.125C8.27891 3.125 6.51172 3.85859 5.18516 5.18516C3.85625 6.51172 3.125 8.27656 3.125 10.1562C3.125 12.0336 3.85859 13.8008 5.18516 15.1273C6.51172 16.4562 8.27656 17.1875 10.1562 17.1875C11.7266 17.1875 13.2172 16.6766 14.4383 15.7344L20.525 21.8187C20.5428 21.8366 20.564 21.8508 20.5874 21.8604C20.6107 21.8701 20.6357 21.8751 20.6609 21.8751C20.6862 21.8751 20.7112 21.8701 20.7345 21.8604C20.7578 21.8508 20.779 21.8366 20.7969 21.8187L21.8187 20.7992C21.8366 20.7814 21.8508 20.7602 21.8604 20.7369C21.8701 20.7135 21.8751 20.6885 21.8751 20.6633C21.8751 20.638 21.8701 20.613 21.8604 20.5897C21.8508 20.5664 21.8366 20.5452 21.8187 20.5273V20.5273ZM13.8688 13.8688C12.875 14.8602 11.5578 15.4062 10.1562 15.4062C8.75469 15.4062 7.4375 14.8602 6.44375 13.8688C5.45234 12.875 4.90625 11.5578 4.90625 10.1562C4.90625 8.75469 5.45234 7.43516 6.44375 6.44375C7.4375 5.45234 8.75469 4.90625 10.1562 4.90625C11.5578 4.90625 12.8773 5.45 13.8688 6.44375C14.8602 7.4375 15.4062 8.75469 15.4062 10.1562C15.4062 11.5578 14.8602 12.8773 13.8688 13.8688Z" fill="#3B3B3B"/>
</svg>
