<svg width="18" height="18" viewBox="0 0 18 18" fill="none" xmlns="http://www.w3.org/2000/svg">
<path d="M2.03768 6.20684L6.50077 5.5582L8.49589 1.51348C8.55038 1.40274 8.64003 1.31309 8.75077 1.25859C9.0285 1.12149 9.366 1.23574 9.50487 1.51348L11.5 5.5582L15.9631 6.20684C16.0861 6.22441 16.1986 6.28242 16.2848 6.37031C16.3889 6.47734 16.4463 6.62133 16.4443 6.77064C16.4423 6.91995 16.3811 7.06237 16.2742 7.1666L13.0451 10.3148L13.808 14.7604C13.8259 14.8638 13.8144 14.9701 13.775 15.0674C13.7355 15.1646 13.6695 15.2488 13.5846 15.3105C13.4997 15.3722 13.3992 15.4088 13.2945 15.4163C13.1899 15.4238 13.0852 15.4017 12.9924 15.3527L9.00038 13.2539L5.00839 15.3527C4.8994 15.4107 4.77284 15.4301 4.65155 15.409C4.34569 15.3562 4.14003 15.0662 4.19276 14.7604L4.95565 10.3148L1.72655 7.1666C1.63866 7.08047 1.58065 6.96797 1.56307 6.84492C1.51561 6.53731 1.73007 6.25254 2.03768 6.20684V6.20684Z" />
</svg>
